<svg width="303" height="303" viewBox="0 0 303 303" fill="none" xmlns="http://www.w3.org/2000/svg">
<g clip-path="url(#clip0_483_1666)">
<path d="M31.7915 49.731C30.0056 36.8622 38.8592 24.9638 51.5667 23.1552L212.629 0.231923C225.337 -1.57667 237.086 7.38941 238.871 20.2583L271.208 253.269C272.994 266.138 264.141 278.036 251.433 279.845L90.371 302.768C77.6633 304.577 65.9145 295.611 64.1287 282.742L31.7915 49.731Z" fill="url(#paint0_linear_483_1666)"/>
<path d="M43.296 48.0937C42.403 41.6592 46.8299 35.71 53.1836 34.8057L214.246 11.8824C220.6 10.9781 226.474 15.4612 227.367 21.8956L259.704 254.906C260.597 261.341 256.17 267.29 249.817 268.194L88.7544 291.117C82.4002 292.022 76.5258 287.539 75.6326 281.104L43.296 48.0937Z" fill="white"/>
<path d="M186.838 51.3196L155.058 135.476C154.402 137.213 152.137 137.542 151.017 136.063L96.4983 64.0685C95.2778 62.4569 96.4437 60.1315 98.4319 60.2124L142.298 61.9985C142.577 62.0099 142.857 61.9696 143.122 61.8804L183.905 48.1686C185.787 47.5361 187.551 49.4311 186.838 51.3196Z" fill="url(#paint1_linear_483_1666)"/>
<path d="M160.147 41.0663L129.43 51.8585C128.925 52.0357 128.603 52.5405 128.647 53.0851L131.407 86.943C131.472 87.7404 132.268 88.2544 132.998 87.9696L141.506 84.6516C142.303 84.341 143.15 84.9779 143.1 85.8485L142.319 99.3109C142.267 100.217 143.182 100.856 143.986 100.476L149.184 98.0204C149.99 97.6403 150.905 98.2811 150.851 99.1888L149.577 120.342C149.498 121.665 151.269 122.13 151.812 120.929L152.175 120.126L170.566 63.9263C170.873 62.9854 169.989 62.0868 169.07 62.4066L160.263 65.4718C159.436 65.7596 158.598 65.0514 158.719 64.1656L161.695 42.3712C161.816 41.4845 160.975 40.7754 160.147 41.0663Z" fill="url(#paint2_linear_483_1666)"/>
<rect x="83.3445" y="175.585" width="36" height="16" rx="8" transform="rotate(-8 83.3445 175.585)" fill="#D1FAE5"/>
<rect x="83.3445" y="175.585" width="36" height="16" rx="8" transform="rotate(-8 83.3445 175.585)" stroke="#A7F3D0"/>
<path d="M89.5165 178.689L96.4682 177.712L96.6235 178.817L93.7953 179.214L94.8324 186.594L93.549 186.774L92.5119 179.395L89.6718 179.794L89.5165 178.689ZM99.9287 177.225L101.402 177.018L105.863 185.044L104.472 185.239L103.369 183.164L99.7206 183.677L99.2317 185.975L97.8532 186.169L99.9287 177.225ZM99.9624 182.552L102.826 182.15L100.885 178.509L100.837 178.515L99.9624 182.552ZM109.148 175.76C110.23 175.608 111.119 175.725 111.819 176.136C112.492 176.526 112.97 177.174 113.258 178.103L111.951 178.286C111.752 177.733 111.431 177.342 110.987 177.113C110.541 176.873 109.974 176.807 109.309 176.901C108.489 177.016 107.874 177.381 107.467 178.02C107.027 178.688 106.893 179.543 107.04 180.588C107.183 181.61 107.52 182.363 108.072 182.843C108.654 183.367 109.48 183.554 110.538 183.405C110.954 183.346 111.338 183.232 111.693 183.085C112.036 182.94 112.325 182.754 112.585 182.536L112.326 180.694L109.985 181.023L109.83 179.918L113.466 179.407L113.967 182.971C113.576 183.378 113.101 183.711 112.546 183.983C111.955 184.26 111.291 184.45 110.554 184.554C109.199 184.744 108.093 184.463 107.225 183.713C106.412 183.015 105.922 182.03 105.745 180.77C105.566 179.499 105.764 178.405 106.349 177.486C106.963 176.503 107.901 175.935 109.148 175.76Z" fill="#065F46"/>
<rect x="135.829" y="168.209" width="36" height="16" rx="3.5" transform="rotate(-8 135.829 168.209)" fill="#FEF3C7"/>
<rect x="135.829" y="168.209" width="36" height="16" rx="3.5" transform="rotate(-8 135.829 168.209)" stroke="#FDE68A"/>
<path d="M142.001 171.312L148.952 170.335L149.108 171.441L146.279 171.838L147.317 179.218L146.033 179.398L144.996 172.018L142.156 172.418L142.001 171.312ZM152.413 169.849L153.886 169.642L158.347 177.667L156.956 177.863L155.853 175.788L152.205 176.301L151.716 178.599L150.337 178.793L152.413 169.849ZM152.447 175.176L155.31 174.774L153.369 171.133L153.321 171.139L152.447 175.176ZM161.633 168.384C162.714 168.232 163.603 168.349 164.303 168.76C164.976 169.15 165.455 169.798 165.743 170.727L164.436 170.91C164.237 170.357 163.915 169.965 163.471 169.737C163.025 169.497 162.458 169.431 161.793 169.525C160.973 169.64 160.358 170.005 159.951 170.644C159.511 171.311 159.377 172.166 159.524 173.212C159.668 174.234 160.004 174.987 160.556 175.467C161.138 175.991 161.965 176.177 163.022 176.029C163.438 175.97 163.822 175.856 164.177 175.709C164.52 175.564 164.809 175.378 165.069 175.159L164.81 173.318L162.469 173.647L162.314 172.541L165.95 172.03L166.451 175.595C166.06 176.002 165.586 176.335 165.03 176.607C164.439 176.884 163.775 177.074 163.038 177.178C161.683 177.368 160.578 177.087 159.709 176.337C158.896 175.639 158.406 174.654 158.229 173.394C158.05 172.123 158.248 171.029 158.834 170.11C159.447 169.127 160.385 168.559 161.633 168.384Z" fill="#92400E"/>
<rect x="188.313" y="160.833" width="36" height="16" rx="7.5" transform="rotate(-8 188.313 160.833)" fill="#CFFAFE"/>
<rect x="188.313" y="160.833" width="36" height="16" rx="7.5" transform="rotate(-8 188.313 160.833)" stroke="#A5F3FC"/>
<path d="M194.485 163.936L201.437 162.959L201.592 164.064L198.764 164.462L199.801 171.841L198.517 172.022L197.48 164.642L194.64 165.041L194.485 163.936ZM204.897 162.473L206.371 162.266L210.831 170.291L209.441 170.487L208.337 168.412L204.689 168.925L204.2 171.223L202.822 171.417L204.897 162.473ZM204.931 167.8L207.795 167.398L205.853 163.756L205.805 163.763L204.931 167.8ZM214.117 161.008C215.198 160.856 216.087 160.973 216.787 161.384C217.46 161.774 217.939 162.421 218.227 163.35L216.92 163.534C216.721 162.98 216.399 162.589 215.955 162.361C215.509 162.121 214.943 162.055 214.277 162.148C213.457 162.264 212.842 162.629 212.435 163.268C211.996 163.935 211.861 164.79 212.008 165.836C212.152 166.858 212.488 167.611 213.04 168.09C213.623 168.614 214.449 168.801 215.506 168.653C215.922 168.594 216.306 168.48 216.661 168.333C217.004 168.188 217.293 168.002 217.553 167.783L217.294 165.941L214.953 166.27L214.798 165.165L218.434 164.654L218.935 168.219C218.544 168.626 218.07 168.959 217.514 169.231C216.923 169.508 216.259 169.698 215.522 169.802C214.168 169.992 213.062 169.711 212.193 168.961C211.38 168.263 210.89 167.278 210.713 166.018C210.534 164.747 210.732 163.652 211.318 162.734C211.931 161.751 212.869 161.183 214.117 161.008Z" fill="#176077"/>
<rect x="116.585" y="203.733" width="37" height="17" rx="8.5" transform="rotate(-8 116.585 203.733)" fill="#0B84FE"/>
<path d="M123.322 207.262L130.274 206.285L130.429 207.39L127.601 207.788L128.638 215.167L127.355 215.347L126.318 207.968L123.477 208.367L123.322 207.262ZM133.734 205.799L135.208 205.591L139.668 213.617L138.278 213.812L137.174 211.738L133.526 212.25L133.037 214.549L131.659 214.742L133.734 205.799ZM133.768 211.126L136.632 210.723L134.69 207.082L134.643 207.089L133.768 211.126ZM142.954 204.333C144.035 204.181 144.924 204.299 145.624 204.709C146.297 205.099 146.776 205.747 147.064 206.676L145.757 206.86C145.558 206.306 145.236 205.915 144.792 205.686C144.346 205.446 143.78 205.38 143.114 205.474C142.294 205.589 141.679 205.954 141.272 206.593C140.833 207.261 140.699 208.116 140.845 209.162C140.989 210.184 141.325 210.936 141.877 211.416C142.46 211.94 143.286 212.127 144.344 211.978C144.759 211.92 145.143 211.805 145.498 211.658C145.841 211.513 146.13 211.327 146.39 211.109L146.132 209.267L143.791 209.596L143.635 208.491L147.272 207.98L147.773 211.545C147.381 211.951 146.907 212.284 146.352 212.556C145.76 212.833 145.096 213.024 144.36 213.127C143.005 213.317 141.899 213.037 141.03 212.286C140.217 211.589 139.727 210.603 139.55 209.344C139.372 208.072 139.569 206.978 140.155 206.059C140.768 205.077 141.706 204.509 142.954 204.333Z" fill="white"/>
<path d="M172.836 200.303L179.787 199.326L179.943 200.431L177.114 200.829L178.151 208.208L176.868 208.389L175.831 201.009L172.991 201.408L172.836 200.303ZM183.248 198.84L184.721 198.633L189.182 206.658L187.791 206.854L186.688 204.779L183.04 205.292L182.551 207.59L181.172 207.784L183.248 198.84ZM183.281 204.167L186.145 203.765L184.204 200.123L184.156 200.13L183.281 204.167ZM192.467 197.374C193.549 197.223 194.438 197.34 195.138 197.751C195.811 198.141 196.289 198.788 196.577 199.717L195.27 199.901C195.071 199.347 194.75 198.956 194.306 198.728C193.86 198.488 193.293 198.422 192.628 198.515C191.808 198.631 191.193 198.996 190.786 199.635C190.346 200.302 190.212 201.157 190.359 202.203C190.503 203.225 190.839 203.977 191.391 204.457C191.973 204.981 192.799 205.168 193.857 205.02C194.273 204.961 194.657 204.847 195.012 204.7C195.355 204.555 195.644 204.369 195.904 204.15L195.645 202.308L193.304 202.637L193.149 201.532L196.785 201.021L197.286 204.586C196.895 204.992 196.42 205.326 195.865 205.598C195.274 205.875 194.61 206.065 193.873 206.168C192.518 206.359 191.412 206.078 190.544 205.328C189.731 204.63 189.241 203.645 189.064 202.385C188.885 201.113 189.083 200.019 189.668 199.101C190.282 198.118 191.22 197.55 192.467 197.374Z" fill="#333333"/>
<path d="M92.4795 256.973C92.0081 257.039 91.68 256.783 91.4952 256.206L88.5901 246.902L90.323 246.658L92.9583 255.35L94.1229 255.186L96.4647 245.795L98.2531 245.544L95.6719 255.746C95.5999 256.039 95.4932 256.252 95.3517 256.385C95.2114 256.527 95.0304 256.614 94.8086 256.645L92.4795 256.973ZM99.3107 247.078L99.2849 245.385L101.101 245.129L101.127 246.822L99.3107 247.078ZM101.18 255.75L99.5855 255.974L99.4568 248.117L101.051 247.893L101.18 255.75ZM101.911 249.285L101.883 247.776L103.63 247.531L103.589 245.529L105.183 245.305L105.224 247.307L107.581 246.976L107.609 248.484L105.252 248.816L105.319 252.411C105.319 252.477 105.327 252.566 105.342 252.677C105.429 253.296 105.778 253.563 106.388 253.477C106.647 253.441 107.107 253.366 107.77 253.254L107.802 254.791C107.435 254.861 106.975 254.935 106.42 255.013C105.662 255.12 105.051 255.031 104.587 254.748C104.123 254.464 103.844 253.985 103.749 253.311C103.739 253.237 103.728 253.097 103.718 252.891L103.644 249.042L101.911 249.285ZM112.142 246.278C113.094 246.144 113.842 246.27 114.387 246.655C114.939 247.03 115.277 247.656 115.4 248.535C115.429 248.738 115.446 248.962 115.452 249.206L115.475 250.475L110.304 251.202L110.306 251.216C110.316 251.422 110.326 251.562 110.336 251.635C110.403 252.107 110.586 252.439 110.886 252.633C111.195 252.815 111.673 252.861 112.32 252.77L112.999 252.675C113.48 252.607 114.204 252.463 115.172 252.242L115.222 253.706C114.42 253.903 113.696 254.047 113.049 254.138L112.37 254.234C111.251 254.391 110.397 254.28 109.807 253.901C109.225 253.521 108.873 252.892 108.75 252.014C108.72 251.801 108.703 251.582 108.7 251.357L108.675 250.172C108.648 249.045 108.896 248.162 109.419 247.523C109.941 246.875 110.756 246.473 111.865 246.317L112.142 246.278ZM113.858 249.331L113.856 249.317C113.846 249.111 113.834 248.962 113.821 248.87C113.759 248.426 113.591 248.105 113.319 247.908C113.055 247.71 112.669 247.646 112.161 247.717L111.884 247.756C110.793 247.91 110.259 248.602 110.281 249.834L113.858 249.331ZM121.288 242.306C122.251 242.181 123.023 242.308 123.604 242.688C124.193 243.057 124.547 243.663 124.665 244.504C124.697 244.735 124.714 244.916 124.713 245.048L124.729 245.767C124.743 246.802 124.464 247.638 123.894 248.274C123.322 248.901 122.497 249.295 121.417 249.456L118.588 249.854L118.648 253.295L117.012 253.525L116.824 242.934L121.288 242.306ZM121.424 247.9C121.996 247.81 122.417 247.624 122.688 247.341C122.958 247.048 123.093 246.629 123.091 246.082L123.083 245.221C123.083 245.155 123.076 245.067 123.06 244.956C122.997 244.503 122.826 244.192 122.548 244.024C122.277 243.845 121.883 243.787 121.364 243.851L118.494 244.254L118.554 248.303L121.424 247.9ZM130.346 245.317C129.77 245.379 129.399 245.422 129.233 245.445C128.641 245.528 128.218 245.734 127.962 246.062C127.705 246.381 127.585 246.869 127.602 247.526L127.669 252.027L126.075 252.251L126 247.794C125.974 246.601 126.206 245.701 126.695 245.095C127.194 244.488 128.031 244.102 129.204 243.937C129.667 243.872 130.061 243.83 130.389 243.813L130.346 245.317ZM134.603 243.121C135.555 242.987 136.303 243.113 136.848 243.499C137.4 243.873 137.738 244.5 137.861 245.378C137.89 245.581 137.907 245.805 137.913 246.049L137.936 247.318L132.765 248.045L132.767 248.059C132.777 248.265 132.787 248.405 132.797 248.479C132.863 248.95 133.047 249.283 133.347 249.476C133.656 249.659 134.134 249.705 134.78 249.614L135.46 249.518C135.94 249.451 136.665 249.307 137.633 249.086L137.683 250.549C136.881 250.746 136.157 250.891 135.51 250.982L134.831 251.077C133.712 251.234 132.858 251.123 132.267 250.745C131.686 250.364 131.334 249.735 131.21 248.857C131.181 248.645 131.164 248.426 131.16 248.2L131.135 247.016C131.109 245.889 131.357 245.005 131.88 244.366C132.402 243.718 133.217 243.316 134.326 243.16L134.603 243.121ZM136.319 246.174L136.317 246.16C136.307 245.954 136.295 245.805 136.282 245.713C136.22 245.269 136.052 244.949 135.78 244.751C135.516 244.553 135.13 244.489 134.622 244.561L134.344 244.6C133.254 244.753 132.72 245.445 132.742 246.677L136.319 246.174ZM141.214 250.18C140.361 250.281 139.621 250.347 138.994 250.379L138.991 248.852C139.909 248.808 140.641 248.757 141.189 248.699L141.661 248.633C142.252 248.55 142.653 248.418 142.863 248.237C143.083 248.056 143.201 247.822 143.217 247.537C143.22 247.49 143.216 247.425 143.204 247.341C143.171 247.11 143.113 246.963 143.029 246.899C142.95 246.807 142.834 246.752 142.681 246.736C142.528 246.72 142.24 246.718 141.817 246.73L141.493 246.734C141.007 246.764 140.538 246.745 140.085 246.677C139.725 246.596 139.445 246.446 139.245 246.23C139.043 246.003 138.914 245.687 138.857 245.28C138.845 245.197 138.834 245.053 138.824 244.847C138.81 244.274 138.91 243.812 139.124 243.461C139.338 243.102 139.666 242.82 140.108 242.616C140.551 242.413 141.137 242.26 141.867 242.157L142.436 242.077L144.393 241.816L144.419 243.311L141.896 243.666C141.489 243.723 141.183 243.789 140.976 243.866C140.769 243.932 140.622 244.024 140.534 244.14C140.455 244.245 140.414 244.392 140.413 244.581C140.41 244.628 140.414 244.689 140.424 244.763C140.445 244.911 140.504 245.03 140.601 245.12C140.709 245.218 140.854 245.278 141.037 245.299C141.227 245.31 141.57 245.309 142.068 245.296C142.658 245.269 143.147 245.29 143.533 245.358C143.872 245.424 144.144 245.579 144.348 245.823C144.561 246.067 144.698 246.401 144.757 246.826C144.786 247.029 144.799 247.188 144.796 247.301C144.806 248.177 144.567 248.823 144.079 249.24C143.592 249.667 142.794 249.958 141.685 250.114L141.214 250.18ZM148.091 249.213C147.238 249.314 146.498 249.381 145.871 249.412L145.869 247.886C146.786 247.842 147.519 247.791 148.067 247.732L148.538 247.666C149.13 247.583 149.531 247.451 149.741 247.271C149.961 247.089 150.079 246.856 150.095 246.571C150.098 246.523 150.093 246.458 150.082 246.375C150.049 246.144 149.991 245.996 149.906 245.933C149.827 245.84 149.711 245.786 149.558 245.77C149.405 245.754 149.118 245.752 148.695 245.764L148.37 245.767C147.885 245.798 147.415 245.779 146.963 245.71C146.603 245.629 146.322 245.48 146.122 245.263C145.921 245.037 145.792 244.72 145.734 244.314C145.723 244.231 145.712 244.086 145.702 243.88C145.687 243.307 145.787 242.845 146.002 242.495C146.215 242.135 146.543 241.853 146.986 241.65C147.429 241.446 148.015 241.293 148.745 241.19L149.313 241.11L151.27 240.85L151.297 242.344L148.773 242.699C148.367 242.756 148.06 242.823 147.854 242.899C147.647 242.966 147.499 243.057 147.412 243.173C147.333 243.279 147.292 243.426 147.29 243.614C147.288 243.662 147.291 243.723 147.302 243.797C147.323 243.944 147.382 244.063 147.479 244.153C147.587 244.251 147.732 244.311 147.914 244.333C148.104 244.344 148.448 244.342 148.946 244.329C149.536 244.303 150.024 244.323 150.411 244.392C150.75 244.457 151.021 244.612 151.225 244.857C151.439 245.1 151.575 245.434 151.635 245.86C151.664 246.063 151.676 246.221 151.674 246.335C151.683 247.21 151.444 247.856 150.956 248.274C150.47 248.7 149.672 248.991 148.563 249.147L148.091 249.213ZM158.819 247.706C157.609 247.876 156.602 247.956 155.799 247.946L155.775 246.366C156.922 246.346 157.926 246.276 158.785 246.155L158.965 246.13C159.548 246.048 159.997 245.928 160.315 245.771C160.641 245.612 160.863 245.416 160.981 245.182C161.099 244.949 161.153 244.663 161.144 244.325C161.139 244.156 161.132 244.04 161.123 243.975C161.077 243.651 160.969 243.417 160.797 243.271C160.626 243.126 160.388 243.041 160.083 243.018C159.786 242.984 159.342 242.972 158.749 242.979C158.073 242.999 157.53 242.958 157.12 242.855C156.709 242.752 156.387 242.567 156.151 242.298C155.923 242.019 155.774 241.626 155.702 241.117C155.674 240.914 155.656 240.686 155.648 240.432C155.622 239.371 155.868 238.578 156.388 238.052C156.908 237.527 157.769 237.179 158.97 237.011L159.941 236.874C160.643 236.775 161.421 236.676 162.274 236.575L162.308 238.125C161.818 238.194 161.443 238.242 161.183 238.269L159.975 238.425L159.004 238.561C158.33 238.656 157.852 238.845 157.572 239.13C157.299 239.404 157.209 239.869 157.301 240.525C157.342 240.812 157.427 241.021 157.559 241.153C157.69 241.276 157.856 241.352 158.058 241.38C158.259 241.408 158.582 241.424 159.026 241.428C159.11 241.425 159.28 241.425 159.535 241.427C160.233 241.433 160.797 241.49 161.227 241.599C161.657 241.708 161.996 241.906 162.243 242.191C162.489 242.468 162.65 242.87 162.724 243.396C162.751 243.59 162.766 243.8 162.77 244.026C162.785 244.806 162.667 245.44 162.415 245.928C162.172 246.414 161.773 246.796 161.218 247.072C160.663 247.348 159.924 247.55 159 247.68L158.819 247.706ZM164.013 237.984L163.987 236.291L165.803 236.036L165.829 237.729L164.013 237.984ZM165.882 246.657L164.288 246.881L164.159 239.024L165.753 238.8L165.882 246.657ZM167.359 241.981C167.314 239.716 168.35 238.435 170.467 238.138L172.283 237.882L172.226 234.865L173.821 234.641L174.02 245.513L170.678 245.982C168.765 246.251 167.685 245.508 167.438 243.752C167.409 243.539 167.39 243.306 167.383 243.053L167.359 241.981ZM172.397 244.228L172.307 239.363L170.491 239.619C169.447 239.765 168.937 240.464 168.962 241.714L168.983 242.87C168.99 243.058 169 243.193 169.012 243.276C169.143 244.21 169.689 244.609 170.65 244.474L172.397 244.228ZM178.929 236.892C179.881 236.758 180.629 236.884 181.174 237.269C181.726 237.644 182.064 238.27 182.187 239.148C182.216 239.352 182.233 239.575 182.239 239.82L182.262 241.089L177.091 241.815L177.093 241.829C177.103 242.035 177.113 242.175 177.123 242.249C177.19 242.721 177.373 243.053 177.673 243.246C177.982 243.429 178.46 243.475 179.107 243.384L179.786 243.289C180.267 243.221 180.991 243.077 181.959 242.856L182.009 244.319C181.207 244.517 180.483 244.661 179.836 244.752L179.157 244.847C178.038 245.005 177.184 244.894 176.594 244.515C176.012 244.135 175.66 243.506 175.537 242.628C175.507 242.415 175.49 242.196 175.487 241.97L175.462 240.786C175.435 239.659 175.683 238.776 176.206 238.137C176.728 237.489 177.543 237.087 178.652 236.931L178.929 236.892ZM180.645 239.945L180.643 239.931C180.633 239.725 180.621 239.576 180.608 239.483C180.546 239.04 180.378 238.719 180.106 238.522C179.842 238.323 179.456 238.26 178.948 238.331L178.671 238.37C177.58 238.523 177.046 239.216 177.068 240.447L180.645 239.945ZM183.674 244.156L183.475 233.284L185.069 233.06L185.126 236.077L187.025 235.81C187.987 235.675 188.739 235.796 189.282 236.172C189.825 236.548 190.157 237.17 190.279 238.039C190.31 238.261 190.329 238.494 190.335 238.738L190.358 239.809C190.403 242.075 189.331 243.361 187.14 243.669L183.674 244.156ZM187.112 242.16C188.221 242.004 188.764 241.311 188.742 240.079L188.721 238.923C188.713 238.735 188.704 238.605 188.694 238.531C188.562 237.588 188.015 237.184 187.054 237.319L185.154 237.586L185.24 242.423L187.112 242.16ZM194.109 242.689C193.416 242.787 192.834 242.671 192.364 242.341C191.892 242.002 191.612 241.518 191.523 240.89C191.504 240.751 191.494 240.644 191.493 240.569C191.495 239.984 191.579 239.511 191.745 239.148C191.91 238.776 192.18 238.488 192.557 238.285C192.942 238.07 193.462 237.917 194.118 237.825L196.447 237.498L196.446 237.385C196.448 237.337 196.444 237.272 196.432 237.189C196.382 236.828 196.22 236.554 195.949 236.366C195.677 236.178 195.288 236.12 194.779 236.191L194.419 236.242C193.596 236.357 192.86 236.484 192.21 236.623L192.22 235.179L192.618 235.095C192.764 235.065 193.021 235.015 193.388 234.944C193.765 234.873 194.091 234.817 194.369 234.778L194.743 234.726C195.695 234.592 196.448 234.717 197.001 235.101C197.555 235.485 197.885 236.056 197.991 236.814C198.003 236.897 198.014 237.042 198.024 237.248L198.13 242.124L194.109 242.689ZM193.096 240.513C193.134 240.781 193.237 240.979 193.406 241.106C193.582 241.222 193.814 241.261 194.101 241.22L196.513 240.881L196.476 238.907L194.172 239.217C193.82 239.257 193.548 239.366 193.356 239.544C193.172 239.711 193.082 239.978 193.087 240.345L193.096 240.513ZM203.916 234.978C203.34 235.04 202.969 235.082 202.803 235.106C202.211 235.189 201.788 235.394 201.532 235.723C201.275 236.041 201.155 236.53 201.172 237.187L201.239 241.687L199.645 241.911L199.57 237.454C199.544 236.261 199.775 235.362 200.265 234.755C200.764 234.148 201.601 233.762 202.774 233.597C203.237 233.532 203.631 233.491 203.959 233.473L203.916 234.978ZM207.47 231.75L207.435 230.199L215.657 229.044L215.691 230.594L212.35 231.064L212.531 240.1L210.895 240.33L210.714 231.294L207.47 231.75ZM219.197 239.164C218.503 239.261 217.922 239.145 217.451 238.815C216.979 238.476 216.699 237.992 216.611 237.364C216.591 237.225 216.581 237.118 216.58 237.043C216.583 236.458 216.667 235.985 216.833 235.622C216.997 235.25 217.268 234.963 217.644 234.759C218.029 234.545 218.549 234.391 219.206 234.299L221.535 233.972L221.533 233.859C221.536 233.811 221.531 233.746 221.52 233.663C221.469 233.302 221.308 233.028 221.036 232.84C220.765 232.652 220.375 232.594 219.867 232.665L219.506 232.716C218.684 232.831 217.947 232.958 217.298 233.097L217.307 231.654L217.705 231.569C217.852 231.539 218.109 231.489 218.476 231.419C218.852 231.347 219.179 231.292 219.456 231.253L219.83 231.2C220.782 231.066 221.535 231.191 222.089 231.575C222.642 231.959 222.972 232.53 223.079 233.288C223.09 233.371 223.101 233.516 223.111 233.722L223.217 238.599L219.197 239.164ZM218.184 236.987C218.221 237.255 218.325 237.453 218.493 237.58C218.67 237.697 218.901 237.735 219.188 237.695L221.6 237.356L221.563 235.381L219.26 235.691C218.907 235.731 218.635 235.84 218.443 236.018C218.26 236.185 218.17 236.452 218.174 236.819L218.184 236.987ZM224.574 233.94C224.502 231.679 225.574 230.393 227.793 230.081L231.106 229.615L231.255 238.02C231.259 238.783 231.032 239.418 230.576 239.925C230.128 240.431 229.387 240.757 228.352 240.902C227.437 241.031 226.568 241.115 225.744 241.156L225.708 239.691C226.607 239.649 227.454 239.572 228.248 239.461C228.757 239.389 229.119 239.254 229.336 239.053C229.553 238.853 229.659 238.57 229.655 238.203L229.64 237.696L227.907 237.939C225.994 238.208 224.912 237.451 224.661 235.667C224.633 235.464 224.616 235.245 224.611 235.01L224.574 233.94ZM229.616 236.215L229.536 231.32L227.817 231.562C226.68 231.722 226.133 232.425 226.177 233.673L226.212 234.827C226.219 235.015 226.227 235.141 226.237 235.205C226.373 236.176 226.922 236.594 227.883 236.458L229.616 236.215ZM234.848 237.021C233.995 237.122 233.255 237.188 232.628 237.219L232.626 235.693C233.543 235.649 234.276 235.598 234.824 235.54L235.295 235.473C235.887 235.39 236.288 235.258 236.498 235.078C236.717 234.896 236.835 234.663 236.852 234.378C236.855 234.33 236.85 234.265 236.838 234.182C236.806 233.951 236.748 233.804 236.663 233.74C236.584 233.647 236.468 233.593 236.315 233.577C236.162 233.561 235.874 233.559 235.452 233.571L235.127 233.574C234.641 233.605 234.172 233.586 233.72 233.517C233.359 233.436 233.079 233.287 232.879 233.07C232.678 232.844 232.548 232.528 232.491 232.121C232.48 232.038 232.469 231.893 232.459 231.687C232.444 231.114 232.544 230.653 232.759 230.302C232.972 229.942 233.3 229.66 233.743 229.457C234.185 229.253 234.772 229.1 235.502 228.997L236.07 228.918L238.027 228.657L238.053 230.152L235.53 230.506C235.123 230.563 234.817 230.63 234.611 230.706C234.404 230.773 234.256 230.864 234.169 230.98C234.089 231.086 234.049 231.233 234.047 231.422C234.044 231.469 234.048 231.53 234.059 231.604C234.079 231.752 234.138 231.871 234.236 231.96C234.344 232.058 234.489 232.118 234.671 232.14C234.861 232.151 235.205 232.149 235.703 232.136C236.293 232.11 236.781 232.131 237.168 232.199C237.507 232.264 237.778 232.419 237.982 232.664C238.196 232.907 238.332 233.242 238.392 233.667C238.42 233.87 238.433 234.028 238.43 234.142C238.44 235.017 238.201 235.663 237.713 236.081C237.226 236.507 236.429 236.798 235.319 236.954L234.848 237.021ZM152.224 254.116C153.187 253.99 153.958 254.117 154.54 254.497C155.129 254.867 155.483 255.472 155.601 256.313C155.633 256.544 155.649 256.726 155.649 256.858L155.665 257.577C155.679 258.612 155.4 259.447 154.83 260.083C154.258 260.71 153.432 261.104 152.352 261.266L149.524 261.663L149.584 265.104L147.948 265.334L147.76 254.743L152.224 254.116ZM152.36 259.709C152.932 259.62 153.353 259.433 153.624 259.15C153.894 258.858 154.029 258.438 154.027 257.892L154.019 257.03C154.019 256.964 154.012 256.876 153.996 256.765C153.932 256.312 153.761 256.002 153.483 255.833C153.213 255.655 152.819 255.597 152.3 255.66L149.43 256.064L149.49 260.113L152.36 259.709ZM157.219 264.031L157.02 253.159L158.614 252.935L158.813 263.807L157.219 264.031ZM165.629 261.294L165.507 254.992L167.102 254.768L167.244 262.622L163.764 263.111C161.851 263.38 160.771 262.637 160.524 260.881C160.494 260.668 160.476 260.435 160.468 260.182L160.391 255.711L161.986 255.487L162.069 259.999C162.067 260.122 162.081 260.29 162.111 260.502C162.179 260.983 162.336 261.3 162.584 261.454C162.841 261.606 163.224 261.646 163.732 261.575L165.629 261.294ZM168.686 257.952C168.613 255.691 169.686 254.405 171.904 254.093L175.217 253.627L175.367 262.032C175.37 262.795 175.144 263.43 174.687 263.937C174.24 264.443 173.499 264.769 172.463 264.914C171.548 265.043 170.679 265.127 169.855 265.168L169.819 263.702C170.718 263.661 171.565 263.584 172.36 263.473C172.868 263.401 173.231 263.265 173.448 263.065C173.665 262.865 173.771 262.582 173.766 262.215L173.752 261.708L172.019 261.951C170.106 262.22 169.024 261.463 168.773 259.679C168.744 259.476 168.728 259.256 168.723 259.021L168.686 257.952ZM173.727 260.227L173.647 255.332L171.928 255.574C170.791 255.734 170.245 256.437 170.288 257.685L170.323 258.839C170.331 259.026 170.339 259.153 170.348 259.217C170.484 260.188 171.033 260.605 171.994 260.47L173.727 260.227ZM176.861 252.336L176.835 250.643L178.651 250.388L178.677 252.081L176.861 252.336ZM178.73 261.008L177.136 261.232L177.007 253.376L178.601 253.152L178.73 261.008ZM182.04 254.181L182.168 260.525L180.573 260.749L180.431 252.894L183.911 252.405C185.824 252.136 186.904 252.88 187.151 254.636C187.181 254.849 187.199 255.082 187.206 255.335L187.283 259.806L185.689 260.03L185.606 255.518C185.599 255.33 185.59 255.2 185.579 255.126C185.447 254.183 184.9 253.779 183.939 253.914L182.04 254.181Z" fill="url(#paint3_linear_483_1666)"/>
</g>
<defs>
<linearGradient id="paint0_linear_483_1666" x1="40.9153" y1="12.4729" x2="246.503" y2="304.303" gradientUnits="userSpaceOnUse">
<stop stop-color="#49C7FF"/>
<stop offset="1" stop-color="#BD36FF"/>
</linearGradient>
<linearGradient id="paint1_linear_483_1666" x1="94.5508" y1="57.9123" x2="159.47" y2="122.865" gradientUnits="userSpaceOnUse">
<stop stop-color="#41D1FF"/>
<stop offset="1" stop-color="#BD34FE"/>
</linearGradient>
<linearGradient id="paint2_linear_483_1666" x1="137.569" y1="46.005" x2="157.116" y2="111.968" gradientUnits="userSpaceOnUse">
<stop stop-color="#FFEA83"/>
<stop offset="0.0833333" stop-color="#FFDD35"/>
<stop offset="1" stop-color="#FFA800"/>
</linearGradient>
<linearGradient id="paint3_linear_483_1666" x1="89.3883" y1="259.928" x2="242.88" y2="238.356" gradientUnits="userSpaceOnUse">
<stop stop-color="#4FBFFF"/>
<stop offset="1" stop-color="#B540FF"/>
</linearGradient>
<clipPath id="clip0_483_1666">
<rect width="303" height="303" fill="white"/>
</clipPath>
</defs>
</svg>
